<svg xmlns="http://www.w3.org/2000/svg" viewBox="0 0 1200 760" role="img" aria-labelledby="title desc">
  <title id="title">Cite Nook AI project preview</title>
  <desc id="desc">A calm green project preview showing documents, retrieval, and cited answers.</desc>
  <defs>
    <linearGradient id="surface" x1="0" y1="0" x2="1200" y2="760" gradientUnits="userSpaceOnUse">
      <stop offset="0" stop-color="#f3f7f1"/>
      <stop offset="0.6" stop-color="#dce8df"/>
      <stop offset="1" stop-color="#adc9bb"/>
    </linearGradient>
    <linearGradient id="panel" x1="186" y1="124" x2="1014" y2="636" gradientUnits="userSpaceOnUse">
      <stop offset="0" stop-color="#ffffff"/>
      <stop offset="1" stop-color="#edf5ef"/>
    </linearGradient>
    <filter id="softShadow" x="106" y="66" width="988" height="650" color-interpolation-filters="sRGB" filterUnits="userSpaceOnUse">
      <feDropShadow dx="0" dy="28" flood-color="#163528" flood-opacity="0.16" stdDeviation="28"/>
    </filter>
  </defs>
  <rect width="1200" height="760" fill="url(#surface)"/>
  <g filter="url(#softShadow)">
    <rect x="186" y="124" width="828" height="512" rx="30" fill="url(#panel)" stroke="#b8cdbc" stroke-width="2"/>
    <rect x="186" y="124" width="828" height="60" rx="30" fill="#d8e6dc"/>
    <circle cx="230" cy="154" r="9" fill="#4b7a63"/>
    <circle cx="260" cy="154" r="9" fill="#7aa68c"/>
    <circle cx="290" cy="154" r="9" fill="#abc6ad"/>
    <rect x="344" y="143" width="420" height="22" rx="11" fill="#f8fbf6"/>
  </g>
  <g transform="translate(258 234)">
    <rect width="234" height="296" rx="20" fill="#f8fbf6" stroke="#c1d4c4" stroke-width="2"/>
    <path d="M52 48h94l36 36v158H52z" fill="#e4efe6" stroke="#7aa68c" stroke-width="3"/>
    <path d="M146 48v36h36" fill="none" stroke="#7aa68c" stroke-width="3"/>
    <rect x="78" y="116" width="78" height="12" rx="6" fill="#4b7a63"/>
    <rect x="78" y="148" width="66" height="10" rx="5" fill="#9dbca6"/>
    <rect x="78" y="176" width="82" height="10" rx="5" fill="#bfd2c2"/>
  </g>
  <path d="M514 382h88" fill="none" stroke="#7aa68c" stroke-width="10" stroke-linecap="round"/>
  <path d="m582 360 24 22-24 22" fill="none" stroke="#7aa68c" stroke-width="10" stroke-linecap="round" stroke-linejoin="round"/>
  <g transform="translate(626 234)">
    <rect width="306" height="296" rx="20" fill="#e7f0e7" stroke="#c1d4c4" stroke-width="2"/>
    <rect x="34" y="44" width="188" height="18" rx="9" fill="#4b7a63"/>
    <rect x="34" y="84" width="238" height="12" rx="6" fill="#9dbca6"/>
    <rect x="34" y="116" width="218" height="12" rx="6" fill="#bfd2c2"/>
    <rect x="34" y="148" width="230" height="12" rx="6" fill="#bfd2c2"/>
    <g transform="translate(34 198)">
      <circle cx="22" cy="22" r="22" fill="#4b7a63"/>
      <text x="22" y="30" fill="#ffffff" font-family="Inter, Segoe UI, Arial, sans-serif" font-size="24" font-weight="800" text-anchor="middle">1</text>
      <rect x="58" y="13" width="154" height="18" rx="9" fill="#7aa68c"/>
    </g>
  </g>
  <rect x="318" y="570" width="564" height="24" rx="12" fill="#c1d6c2"/>
  <rect x="420" y="606" width="360" height="18" rx="9" fill="#d4e4d3"/>
</svg>
